<?xml version="1.0" standalone="no"?>
<!DOCTYPE svg PUBLIC "-//W3C//DTD SVG 20010904//EN"
 "http://www.w3.org/TR/2001/REC-SVG-20010904/DTD/svg10.dtd">
<svg version="1.0" xmlns="http://www.w3.org/2000/svg"
 width="1058.000000pt" height="1058.000000pt" viewBox="0 0 1058.000000 1058.000000"
 preserveAspectRatio="xMidYMid meet">
<metadata>
Created by potrace 1.11, written by Peter Selinger 2001-2013
</metadata>
<g transform="translate(0.000000,1058.000000) scale(0.100000,-0.100000)"
fill="#000000" stroke="none">
<path d="M5067 10574 c-1 -1 -56 -5 -122 -8 -66 -4 -131 -8 -145 -10 -14 -2
-55 -7 -92 -10 -37 -4 -77 -9 -90 -11 -13 -2 -43 -6 -68 -9 -25 -3 -56 -8 -70
-11 -14 -2 -36 -7 -50 -10 -14 -3 -43 -7 -65 -11 -22 -3 -58 -10 -80 -16 -22
-6 -53 -12 -70 -15 -72 -11 -502 -133 -530 -151 -5 -4 -15 -7 -22 -8 -64 -10
-567 -239 -733 -334 -307 -176 -579 -371 -855 -613 -95 -84 -346 -336 -420
-422 -33 -38 -66 -77 -74 -85 -30 -32 -200 -249 -262 -335 -108 -150 -235
-347 -309 -480 -18 -33 -42 -76 -53 -95 -29 -52 -177 -347 -177 -354 0 -3 -11
-29 -24 -58 -13 -29 -34 -78 -46 -108 -13 -30 -31 -73 -41 -95 -17 -39 -117
-326 -124 -355 -2 -8 -15 -51 -29 -95 -47 -150 -119 -458 -142 -605 -2 -19 -9
-57 -14 -85 -11 -62 -20 -121 -25 -160 -10 -96 -18 -162 -21 -178 -26 -135
-25 -925 1 -1090 2 -12 6 -49 10 -82 6 -56 28 -218 41 -295 4 -29 58 -300 69
-350 25 -113 103 -384 158 -545 136 -396 338 -812 569 -1173 311 -484 663
-878 1119 -1254 105 -86 333 -248 499 -354 128 -81 446 -248 590 -309 36 -15
79 -33 95 -40 138 -60 424 -154 615 -204 161 -42 354 -81 480 -97 25 -3 52 -7
60 -9 8 -2 47 -7 85 -11 39 -3 84 -8 100 -10 178 -22 750 -22 871 0 11 2 55 7
99 11 44 4 82 8 85 10 3 2 30 6 60 9 331 35 890 196 1261 364 186 84 488 244
588 311 14 10 73 49 131 86 116 76 362 259 455 339 33 28 70 60 84 71 86 72
289 270 406 396 392 422 744 956 969 1469 21 47 44 99 52 117 75 168 195 523
252 748 41 160 90 388 98 455 2 19 6 46 9 60 3 14 7 43 11 65 3 22 7 51 9 65
2 14 7 52 10 85 3 33 8 74 10 92 27 194 27 898 0 1053 -2 14 -7 54 -11 90 -3
36 -7 72 -9 80 -2 8 -6 44 -10 80 -4 36 -8 67 -10 70 -2 3 -6 24 -9 46 -4 22
-9 51 -11 64 -3 14 -8 41 -11 60 -14 84 -88 391 -98 408 -3 5 -7 19 -10 33 -9
51 -78 265 -127 396 -207 554 -495 1066 -853 1513 -223 278 -531 590 -776 785
-41 33 -77 63 -80 66 -35 42 -436 312 -614 414 -108 61 -408 215 -421 215 -2
0 -34 14 -70 30 -190 87 -484 187 -735 250 -85 22 -166 41 -180 44 -14 2 -63
11 -110 20 -151 28 -154 28 -290 45 -219 27 -310 33 -558 35 -111 1 -204 1
-205 0z m-1946 -3228 c306 -25 627 -157 879 -361 68 -54 191 -177 232 -230 12
-16 29 -37 37 -45 8 -8 40 -53 71 -100 109 -167 199 -379 205 -485 12 -226
-180 -419 -410 -411 -189 7 -336 118 -395 299 -41 129 -173 294 -308 385 -183
125 -413 170 -634 124 -195 -40 -369 -150 -488 -307 -51 -66 -104 -161 -124
-221 -47 -142 -151 -234 -304 -270 -57 -13 -159 -11 -207 4 -104 33 -196 110
-245 208 -28 54 -34 79 -38 147 -5 96 18 175 99 342 83 172 177 304 319 445
280 280 614 437 1015 476 33 4 61 7 62 8 4 3 168 -3 234 -8z m4624 0 c315 -21
639 -150 900 -359 60 -48 195 -184 246 -247 107 -132 218 -332 274 -494 64
-184 1 -370 -159 -470 -207 -130 -493 -47 -593 172 -18 40 -33 77 -33 82 0 20
-87 160 -134 216 -159 188 -381 291 -632 292 -169 1 -319 -44 -458 -135 -156
-103 -247 -221 -336 -436 -23 -56 -47 -94 -82 -129 -48 -49 -144 -102 -202
-112 -90 -16 -119 -17 -172 -6 -202 41 -339 209 -330 402 7 133 155 444 290
606 248 299 553 495 899 577 137 32 154 35 287 42 63 3 116 7 118 8 2 2 11 1
20 -1 9 -1 53 -5 97 -8z m769 -3357 c7 -7 -27 -88 -95 -221 -110 -218 -192
-349 -348 -558 -31 -41 -60 -80 -66 -86 -5 -6 -32 -38 -59 -70 -91 -109 -340
-349 -466 -450 -256 -204 -542 -375 -826 -494 -54 -23 -108 -45 -119 -50 -62
-28 -399 -130 -475 -144 -14 -2 -59 -11 -100 -19 -72 -15 -120 -22 -205 -33
-22 -3 -51 -7 -65 -10 -115 -18 -481 -25 -667 -12 -88 7 -207 21 -348 43 -50
8 -232 50 -305 70 -30 9 -63 18 -73 20 -110 25 -400 141 -587 235 -146 73
-401 228 -465 282 -5 5 -33 26 -61 47 -238 175 -483 420 -680 678 -59 77 -204
289 -204 298 0 1 -19 34 -42 71 -54 90 -201 391 -195 401 6 9 6442 11 6451 2z"/>
</g>
</svg>
